<mxfile host="Electron" agent="Mozilla/5.0 (X11; Linux x86_64) AppleWebKit/537.36 (KHTML, like Gecko) draw.io/27.0.2 Chrome/134.0.6998.205 Electron/35.3.0 Safari/537.36" version="27.0.2">
  <diagram name="DB schema" id="reNyeH3_qhQsP8QC6dpi">
    <mxGraphModel dx="1042" dy="687" grid="0" gridSize="10" guides="1" tooltips="1" connect="1" arrows="1" fold="1" page="1" pageScale="1" pageWidth="1169" pageHeight="827" math="0" shadow="0">
      <root>
        <mxCell id="0" />
        <mxCell id="1" parent="0" />
        <mxCell id="GDT_G8Te0QSxyf7FbXCo-1" value="&lt;h2&gt;&lt;b&gt;&lt;font style=&quot;font-size: 20px;&quot;&gt;Job4j_social_media DB schema&lt;/font&gt;&lt;/b&gt;&lt;/h2&gt;" style="text;strokeColor=none;fillColor=none;html=1;align=center;verticalAlign=middle;whiteSpace=wrap;rounded=0;fontSize=16;fontFamily=Courier New;" parent="1" vertex="1">
          <mxGeometry x="544" y="84" width="60" height="20" as="geometry" />
        </mxCell>
        <mxCell id="GDT_G8Te0QSxyf7FbXCo-2" style="edgeStyle=none;curved=1;rounded=0;orthogonalLoop=1;jettySize=auto;html=1;exitX=1;exitY=0.25;exitDx=0;exitDy=0;fontSize=12;startSize=8;endSize=8;" parent="1" source="GDT_G8Te0QSxyf7FbXCo-1" target="GDT_G8Te0QSxyf7FbXCo-1" edge="1">
          <mxGeometry relative="1" as="geometry" />
        </mxCell>
        <mxCell id="pHdTkfhxEvhXQCfmh5LA-27" value="posts" style="shape=table;startSize=30;container=1;collapsible=1;childLayout=tableLayout;fixedRows=1;rowLines=0;fontStyle=1;align=center;resizeLast=1;html=1;" parent="1" vertex="1">
          <mxGeometry x="831" y="171" width="199.20003255208314" height="180" as="geometry" />
        </mxCell>
        <mxCell id="pHdTkfhxEvhXQCfmh5LA-28" value="" style="shape=tableRow;horizontal=0;startSize=0;swimlaneHead=0;swimlaneBody=0;fillColor=none;collapsible=0;dropTarget=0;points=[[0,0.5],[1,0.5]];portConstraint=eastwest;top=0;left=0;right=0;bottom=1;" parent="pHdTkfhxEvhXQCfmh5LA-27" vertex="1">
          <mxGeometry y="30" width="199.20003255208314" height="30" as="geometry" />
        </mxCell>
        <mxCell id="pHdTkfhxEvhXQCfmh5LA-29" value="PK" style="shape=partialRectangle;connectable=0;fillColor=none;top=0;left=0;bottom=0;right=0;fontStyle=1;overflow=hidden;whiteSpace=wrap;html=1;" parent="pHdTkfhxEvhXQCfmh5LA-28" vertex="1">
          <mxGeometry width="30" height="30" as="geometry">
            <mxRectangle width="30" height="30" as="alternateBounds" />
          </mxGeometry>
        </mxCell>
        <mxCell id="pHdTkfhxEvhXQCfmh5LA-30" value="id" style="shape=partialRectangle;connectable=0;fillColor=none;top=0;left=0;bottom=0;right=0;align=left;spacingLeft=6;fontStyle=5;overflow=hidden;whiteSpace=wrap;html=1;" parent="pHdTkfhxEvhXQCfmh5LA-28" vertex="1">
          <mxGeometry x="30" width="169.20003255208314" height="30" as="geometry">
            <mxRectangle width="169.20003255208314" height="30" as="alternateBounds" />
          </mxGeometry>
        </mxCell>
        <mxCell id="pHdTkfhxEvhXQCfmh5LA-129" value="" style="shape=tableRow;horizontal=0;startSize=0;swimlaneHead=0;swimlaneBody=0;fillColor=none;collapsible=0;dropTarget=0;points=[[0,0.5],[1,0.5]];portConstraint=eastwest;top=0;left=0;right=0;bottom=1;" parent="pHdTkfhxEvhXQCfmh5LA-27" vertex="1">
          <mxGeometry y="60" width="199.20003255208314" height="30" as="geometry" />
        </mxCell>
        <mxCell id="pHdTkfhxEvhXQCfmh5LA-130" value="FK" style="shape=partialRectangle;connectable=0;fillColor=none;top=0;left=0;bottom=0;right=0;fontStyle=1;overflow=hidden;whiteSpace=wrap;html=1;" parent="pHdTkfhxEvhXQCfmh5LA-129" vertex="1">
          <mxGeometry width="30" height="30" as="geometry">
            <mxRectangle width="30" height="30" as="alternateBounds" />
          </mxGeometry>
        </mxCell>
        <mxCell id="pHdTkfhxEvhXQCfmh5LA-131" value="user_id" style="shape=partialRectangle;connectable=0;fillColor=none;top=0;left=0;bottom=0;right=0;align=left;spacingLeft=6;fontStyle=5;overflow=hidden;whiteSpace=wrap;html=1;" parent="pHdTkfhxEvhXQCfmh5LA-129" vertex="1">
          <mxGeometry x="30" width="169.20003255208314" height="30" as="geometry">
            <mxRectangle width="169.20003255208314" height="30" as="alternateBounds" />
          </mxGeometry>
        </mxCell>
        <mxCell id="pHdTkfhxEvhXQCfmh5LA-31" value="" style="shape=tableRow;horizontal=0;startSize=0;swimlaneHead=0;swimlaneBody=0;fillColor=none;collapsible=0;dropTarget=0;points=[[0,0.5],[1,0.5]];portConstraint=eastwest;top=0;left=0;right=0;bottom=0;" parent="pHdTkfhxEvhXQCfmh5LA-27" vertex="1">
          <mxGeometry y="90" width="199.20003255208314" height="30" as="geometry" />
        </mxCell>
        <mxCell id="pHdTkfhxEvhXQCfmh5LA-32" value="" style="shape=partialRectangle;connectable=0;fillColor=none;top=0;left=0;bottom=0;right=0;editable=1;overflow=hidden;whiteSpace=wrap;html=1;" parent="pHdTkfhxEvhXQCfmh5LA-31" vertex="1">
          <mxGeometry width="30" height="30" as="geometry">
            <mxRectangle width="30" height="30" as="alternateBounds" />
          </mxGeometry>
        </mxCell>
        <mxCell id="pHdTkfhxEvhXQCfmh5LA-33" value="title&lt;span style=&quot;white-space: pre;&quot;&gt;&#x9;&lt;/span&gt;&lt;span style=&quot;white-space: pre;&quot;&gt;&#x9;&lt;span style=&quot;white-space: pre;&quot;&gt;&#x9;&lt;/span&gt;&lt;/span&gt;TEXT" style="shape=partialRectangle;connectable=0;fillColor=none;top=0;left=0;bottom=0;right=0;align=left;spacingLeft=6;overflow=hidden;whiteSpace=wrap;html=1;" parent="pHdTkfhxEvhXQCfmh5LA-31" vertex="1">
          <mxGeometry x="30" width="169.20003255208314" height="30" as="geometry">
            <mxRectangle width="169.20003255208314" height="30" as="alternateBounds" />
          </mxGeometry>
        </mxCell>
        <mxCell id="pHdTkfhxEvhXQCfmh5LA-34" value="" style="shape=tableRow;horizontal=0;startSize=0;swimlaneHead=0;swimlaneBody=0;fillColor=none;collapsible=0;dropTarget=0;points=[[0,0.5],[1,0.5]];portConstraint=eastwest;top=0;left=0;right=0;bottom=0;" parent="pHdTkfhxEvhXQCfmh5LA-27" vertex="1">
          <mxGeometry y="120" width="199.20003255208314" height="30" as="geometry" />
        </mxCell>
        <mxCell id="pHdTkfhxEvhXQCfmh5LA-35" value="" style="shape=partialRectangle;connectable=0;fillColor=none;top=0;left=0;bottom=0;right=0;editable=1;overflow=hidden;whiteSpace=wrap;html=1;" parent="pHdTkfhxEvhXQCfmh5LA-34" vertex="1">
          <mxGeometry width="30" height="30" as="geometry">
            <mxRectangle width="30" height="30" as="alternateBounds" />
          </mxGeometry>
        </mxCell>
        <mxCell id="pHdTkfhxEvhXQCfmh5LA-36" value="description&lt;span style=&quot;white-space: pre;&quot;&gt;&#x9;&lt;/span&gt;TEXT" style="shape=partialRectangle;connectable=0;fillColor=none;top=0;left=0;bottom=0;right=0;align=left;spacingLeft=6;overflow=hidden;whiteSpace=wrap;html=1;" parent="pHdTkfhxEvhXQCfmh5LA-34" vertex="1">
          <mxGeometry x="30" width="169.20003255208314" height="30" as="geometry">
            <mxRectangle width="169.20003255208314" height="30" as="alternateBounds" />
          </mxGeometry>
        </mxCell>
        <mxCell id="pHdTkfhxEvhXQCfmh5LA-37" value="" style="shape=tableRow;horizontal=0;startSize=0;swimlaneHead=0;swimlaneBody=0;fillColor=none;collapsible=0;dropTarget=0;points=[[0,0.5],[1,0.5]];portConstraint=eastwest;top=0;left=0;right=0;bottom=0;" parent="pHdTkfhxEvhXQCfmh5LA-27" vertex="1">
          <mxGeometry y="150" width="199.20003255208314" height="30" as="geometry" />
        </mxCell>
        <mxCell id="pHdTkfhxEvhXQCfmh5LA-38" value="" style="shape=partialRectangle;connectable=0;fillColor=none;top=0;left=0;bottom=0;right=0;editable=1;overflow=hidden;whiteSpace=wrap;html=1;" parent="pHdTkfhxEvhXQCfmh5LA-37" vertex="1">
          <mxGeometry width="30" height="30" as="geometry">
            <mxRectangle width="30" height="30" as="alternateBounds" />
          </mxGeometry>
        </mxCell>
        <mxCell id="pHdTkfhxEvhXQCfmh5LA-39" value="created&lt;span style=&quot;white-space: pre;&quot;&gt;&#x9;&lt;/span&gt;&lt;span style=&quot;white-space: pre;&quot;&gt;&#x9;&lt;/span&gt;TIMESTAMP" style="shape=partialRectangle;connectable=0;fillColor=none;top=0;left=0;bottom=0;right=0;align=left;spacingLeft=6;overflow=hidden;whiteSpace=wrap;html=1;" parent="pHdTkfhxEvhXQCfmh5LA-37" vertex="1">
          <mxGeometry x="30" width="169.20003255208314" height="30" as="geometry">
            <mxRectangle width="169.20003255208314" height="30" as="alternateBounds" />
          </mxGeometry>
        </mxCell>
        <mxCell id="pHdTkfhxEvhXQCfmh5LA-43" value="users" style="shape=table;startSize=30;container=1;collapsible=1;childLayout=tableLayout;fixedRows=1;rowLines=0;fontStyle=1;align=center;resizeLast=1;html=1;" parent="1" vertex="1">
          <mxGeometry x="471.5" y="335" width="205" height="150" as="geometry" />
        </mxCell>
        <mxCell id="pHdTkfhxEvhXQCfmh5LA-44" value="" style="shape=tableRow;horizontal=0;startSize=0;swimlaneHead=0;swimlaneBody=0;fillColor=none;collapsible=0;dropTarget=0;points=[[0,0.5],[1,0.5]];portConstraint=eastwest;top=0;left=0;right=0;bottom=1;" parent="pHdTkfhxEvhXQCfmh5LA-43" vertex="1">
          <mxGeometry y="30" width="205" height="30" as="geometry" />
        </mxCell>
        <mxCell id="pHdTkfhxEvhXQCfmh5LA-45" value="PK" style="shape=partialRectangle;connectable=0;fillColor=none;top=0;left=0;bottom=0;right=0;fontStyle=1;overflow=hidden;whiteSpace=wrap;html=1;" parent="pHdTkfhxEvhXQCfmh5LA-44" vertex="1">
          <mxGeometry width="30" height="30" as="geometry">
            <mxRectangle width="30" height="30" as="alternateBounds" />
          </mxGeometry>
        </mxCell>
        <mxCell id="pHdTkfhxEvhXQCfmh5LA-46" value="id" style="shape=partialRectangle;connectable=0;fillColor=none;top=0;left=0;bottom=0;right=0;align=left;spacingLeft=6;fontStyle=5;overflow=hidden;whiteSpace=wrap;html=1;" parent="pHdTkfhxEvhXQCfmh5LA-44" vertex="1">
          <mxGeometry x="30" width="175" height="30" as="geometry">
            <mxRectangle width="175" height="30" as="alternateBounds" />
          </mxGeometry>
        </mxCell>
        <mxCell id="pHdTkfhxEvhXQCfmh5LA-50" value="" style="shape=tableRow;horizontal=0;startSize=0;swimlaneHead=0;swimlaneBody=0;fillColor=none;collapsible=0;dropTarget=0;points=[[0,0.5],[1,0.5]];portConstraint=eastwest;top=0;left=0;right=0;bottom=0;" parent="pHdTkfhxEvhXQCfmh5LA-43" vertex="1">
          <mxGeometry y="60" width="205" height="30" as="geometry" />
        </mxCell>
        <mxCell id="pHdTkfhxEvhXQCfmh5LA-51" value="" style="shape=partialRectangle;connectable=0;fillColor=none;top=0;left=0;bottom=0;right=0;editable=1;overflow=hidden;whiteSpace=wrap;html=1;" parent="pHdTkfhxEvhXQCfmh5LA-50" vertex="1">
          <mxGeometry width="30" height="30" as="geometry">
            <mxRectangle width="30" height="30" as="alternateBounds" />
          </mxGeometry>
        </mxCell>
        <mxCell id="pHdTkfhxEvhXQCfmh5LA-52" value="email&lt;span style=&quot;white-space: pre;&quot;&gt;&#x9;&lt;/span&gt;&lt;span style=&quot;white-space: pre;&quot;&gt;&#x9;&lt;/span&gt;TEXT" style="shape=partialRectangle;connectable=0;fillColor=none;top=0;left=0;bottom=0;right=0;align=left;spacingLeft=6;overflow=hidden;whiteSpace=wrap;html=1;" parent="pHdTkfhxEvhXQCfmh5LA-50" vertex="1">
          <mxGeometry x="30" width="175" height="30" as="geometry">
            <mxRectangle width="175" height="30" as="alternateBounds" />
          </mxGeometry>
        </mxCell>
        <mxCell id="pHdTkfhxEvhXQCfmh5LA-126" value="" style="shape=tableRow;horizontal=0;startSize=0;swimlaneHead=0;swimlaneBody=0;fillColor=none;collapsible=0;dropTarget=0;points=[[0,0.5],[1,0.5]];portConstraint=eastwest;top=0;left=0;right=0;bottom=0;" parent="pHdTkfhxEvhXQCfmh5LA-43" vertex="1">
          <mxGeometry y="90" width="205" height="30" as="geometry" />
        </mxCell>
        <mxCell id="pHdTkfhxEvhXQCfmh5LA-127" value="" style="shape=partialRectangle;connectable=0;fillColor=none;top=0;left=0;bottom=0;right=0;editable=1;overflow=hidden;whiteSpace=wrap;html=1;" parent="pHdTkfhxEvhXQCfmh5LA-126" vertex="1">
          <mxGeometry width="30" height="30" as="geometry">
            <mxRectangle width="30" height="30" as="alternateBounds" />
          </mxGeometry>
        </mxCell>
        <mxCell id="pHdTkfhxEvhXQCfmh5LA-128" value="password&lt;span style=&quot;white-space: pre;&quot;&gt;&#x9;&lt;/span&gt;&lt;span style=&quot;white-space: pre;&quot;&gt;&#x9;&lt;/span&gt;TEXT" style="shape=partialRectangle;connectable=0;fillColor=none;top=0;left=0;bottom=0;right=0;align=left;spacingLeft=6;overflow=hidden;whiteSpace=wrap;html=1;" parent="pHdTkfhxEvhXQCfmh5LA-126" vertex="1">
          <mxGeometry x="30" width="175" height="30" as="geometry">
            <mxRectangle width="175" height="30" as="alternateBounds" />
          </mxGeometry>
        </mxCell>
        <mxCell id="pHdTkfhxEvhXQCfmh5LA-53" value="" style="shape=tableRow;horizontal=0;startSize=0;swimlaneHead=0;swimlaneBody=0;fillColor=none;collapsible=0;dropTarget=0;points=[[0,0.5],[1,0.5]];portConstraint=eastwest;top=0;left=0;right=0;bottom=0;" parent="pHdTkfhxEvhXQCfmh5LA-43" vertex="1">
          <mxGeometry y="120" width="205" height="30" as="geometry" />
        </mxCell>
        <mxCell id="pHdTkfhxEvhXQCfmh5LA-54" value="" style="shape=partialRectangle;connectable=0;fillColor=none;top=0;left=0;bottom=0;right=0;editable=1;overflow=hidden;whiteSpace=wrap;html=1;" parent="pHdTkfhxEvhXQCfmh5LA-53" vertex="1">
          <mxGeometry width="30" height="30" as="geometry">
            <mxRectangle width="30" height="30" as="alternateBounds" />
          </mxGeometry>
        </mxCell>
        <mxCell id="pHdTkfhxEvhXQCfmh5LA-55" value="created&lt;span style=&quot;white-space: pre;&quot;&gt;&#x9;&lt;/span&gt;&lt;span style=&quot;white-space: pre;&quot;&gt;&#x9;&lt;/span&gt;TIMESTAMP" style="shape=partialRectangle;connectable=0;fillColor=none;top=0;left=0;bottom=0;right=0;align=left;spacingLeft=6;overflow=hidden;whiteSpace=wrap;html=1;" parent="pHdTkfhxEvhXQCfmh5LA-53" vertex="1">
          <mxGeometry x="30" width="175" height="30" as="geometry">
            <mxRectangle width="175" height="30" as="alternateBounds" />
          </mxGeometry>
        </mxCell>
        <mxCell id="pHdTkfhxEvhXQCfmh5LA-59" value="messages" style="shape=table;startSize=30;container=1;collapsible=1;childLayout=tableLayout;fixedRows=1;rowLines=0;fontStyle=1;align=center;resizeLast=1;html=1;" parent="1" vertex="1">
          <mxGeometry x="115.5" y="95" width="237.3033821614585" height="180" as="geometry" />
        </mxCell>
        <mxCell id="pHdTkfhxEvhXQCfmh5LA-170" value="" style="shape=tableRow;horizontal=0;startSize=0;swimlaneHead=0;swimlaneBody=0;fillColor=none;collapsible=0;dropTarget=0;points=[[0,0.5],[1,0.5]];portConstraint=eastwest;top=0;left=0;right=0;bottom=1;" parent="pHdTkfhxEvhXQCfmh5LA-59" vertex="1">
          <mxGeometry y="30" width="237.3033821614585" height="30" as="geometry" />
        </mxCell>
        <mxCell id="pHdTkfhxEvhXQCfmh5LA-171" value="PK" style="shape=partialRectangle;connectable=0;fillColor=none;top=0;left=0;bottom=0;right=0;fontStyle=1;overflow=hidden;whiteSpace=wrap;html=1;" parent="pHdTkfhxEvhXQCfmh5LA-170" vertex="1">
          <mxGeometry width="30" height="30" as="geometry">
            <mxRectangle width="30" height="30" as="alternateBounds" />
          </mxGeometry>
        </mxCell>
        <mxCell id="pHdTkfhxEvhXQCfmh5LA-172" value="id" style="shape=partialRectangle;connectable=0;fillColor=none;top=0;left=0;bottom=0;right=0;align=left;spacingLeft=6;fontStyle=5;overflow=hidden;whiteSpace=wrap;html=1;" parent="pHdTkfhxEvhXQCfmh5LA-170" vertex="1">
          <mxGeometry x="30" width="207.3033821614585" height="30" as="geometry">
            <mxRectangle width="207.3033821614585" height="30" as="alternateBounds" />
          </mxGeometry>
        </mxCell>
        <mxCell id="pHdTkfhxEvhXQCfmh5LA-173" value="" style="shape=tableRow;horizontal=0;startSize=0;swimlaneHead=0;swimlaneBody=0;fillColor=none;collapsible=0;dropTarget=0;points=[[0,0.5],[1,0.5]];portConstraint=eastwest;top=0;left=0;right=0;bottom=1;" parent="pHdTkfhxEvhXQCfmh5LA-59" vertex="1">
          <mxGeometry y="60" width="237.3033821614585" height="30" as="geometry" />
        </mxCell>
        <mxCell id="pHdTkfhxEvhXQCfmh5LA-174" value="FK" style="shape=partialRectangle;connectable=0;fillColor=none;top=0;left=0;bottom=0;right=0;fontStyle=1;overflow=hidden;whiteSpace=wrap;html=1;" parent="pHdTkfhxEvhXQCfmh5LA-173" vertex="1">
          <mxGeometry width="30" height="30" as="geometry">
            <mxRectangle width="30" height="30" as="alternateBounds" />
          </mxGeometry>
        </mxCell>
        <mxCell id="pHdTkfhxEvhXQCfmh5LA-175" value="user_from_id" style="shape=partialRectangle;connectable=0;fillColor=none;top=0;left=0;bottom=0;right=0;align=left;spacingLeft=6;fontStyle=5;overflow=hidden;whiteSpace=wrap;html=1;" parent="pHdTkfhxEvhXQCfmh5LA-173" vertex="1">
          <mxGeometry x="30" width="207.3033821614585" height="30" as="geometry">
            <mxRectangle width="207.3033821614585" height="30" as="alternateBounds" />
          </mxGeometry>
        </mxCell>
        <mxCell id="pHdTkfhxEvhXQCfmh5LA-60" value="" style="shape=tableRow;horizontal=0;startSize=0;swimlaneHead=0;swimlaneBody=0;fillColor=none;collapsible=0;dropTarget=0;points=[[0,0.5],[1,0.5]];portConstraint=eastwest;top=0;left=0;right=0;bottom=1;" parent="pHdTkfhxEvhXQCfmh5LA-59" vertex="1">
          <mxGeometry y="90" width="237.3033821614585" height="30" as="geometry" />
        </mxCell>
        <mxCell id="pHdTkfhxEvhXQCfmh5LA-61" value="FK" style="shape=partialRectangle;connectable=0;fillColor=none;top=0;left=0;bottom=0;right=0;fontStyle=1;overflow=hidden;whiteSpace=wrap;html=1;" parent="pHdTkfhxEvhXQCfmh5LA-60" vertex="1">
          <mxGeometry width="30" height="30" as="geometry">
            <mxRectangle width="30" height="30" as="alternateBounds" />
          </mxGeometry>
        </mxCell>
        <mxCell id="pHdTkfhxEvhXQCfmh5LA-62" value="user_to_id" style="shape=partialRectangle;connectable=0;fillColor=none;top=0;left=0;bottom=0;right=0;align=left;spacingLeft=6;fontStyle=5;overflow=hidden;whiteSpace=wrap;html=1;" parent="pHdTkfhxEvhXQCfmh5LA-60" vertex="1">
          <mxGeometry x="30" width="207.3033821614585" height="30" as="geometry">
            <mxRectangle width="207.3033821614585" height="30" as="alternateBounds" />
          </mxGeometry>
        </mxCell>
        <mxCell id="pHdTkfhxEvhXQCfmh5LA-72" value="" style="shape=tableRow;horizontal=0;startSize=0;swimlaneHead=0;swimlaneBody=0;fillColor=none;collapsible=0;dropTarget=0;points=[[0,0.5],[1,0.5]];portConstraint=eastwest;top=0;left=0;right=0;bottom=0;" parent="pHdTkfhxEvhXQCfmh5LA-59" vertex="1">
          <mxGeometry y="120" width="237.3033821614585" height="30" as="geometry" />
        </mxCell>
        <mxCell id="pHdTkfhxEvhXQCfmh5LA-73" value="" style="shape=partialRectangle;connectable=0;fillColor=none;top=0;left=0;bottom=0;right=0;editable=1;overflow=hidden;whiteSpace=wrap;html=1;" parent="pHdTkfhxEvhXQCfmh5LA-72" vertex="1">
          <mxGeometry width="30" height="30" as="geometry">
            <mxRectangle width="30" height="30" as="alternateBounds" />
          </mxGeometry>
        </mxCell>
        <mxCell id="pHdTkfhxEvhXQCfmh5LA-74" value="content&lt;span style=&quot;white-space: pre;&quot;&gt;&#x9;&lt;/span&gt;&lt;span style=&quot;white-space: pre;&quot;&gt;&#x9;&lt;span style=&quot;white-space: pre;&quot;&gt;&#x9;&lt;/span&gt;&lt;/span&gt;&lt;span style=&quot;white-space: pre;&quot;&gt;&#x9;&lt;/span&gt;TEXT" style="shape=partialRectangle;connectable=0;fillColor=none;top=0;left=0;bottom=0;right=0;align=left;spacingLeft=6;overflow=hidden;whiteSpace=wrap;html=1;" parent="pHdTkfhxEvhXQCfmh5LA-72" vertex="1">
          <mxGeometry x="30" width="207.3033821614585" height="30" as="geometry">
            <mxRectangle width="207.3033821614585" height="30" as="alternateBounds" />
          </mxGeometry>
        </mxCell>
        <mxCell id="pHdTkfhxEvhXQCfmh5LA-69" value="" style="shape=tableRow;horizontal=0;startSize=0;swimlaneHead=0;swimlaneBody=0;fillColor=none;collapsible=0;dropTarget=0;points=[[0,0.5],[1,0.5]];portConstraint=eastwest;top=0;left=0;right=0;bottom=0;" parent="pHdTkfhxEvhXQCfmh5LA-59" vertex="1">
          <mxGeometry y="150" width="237.3033821614585" height="30" as="geometry" />
        </mxCell>
        <mxCell id="pHdTkfhxEvhXQCfmh5LA-70" value="" style="shape=partialRectangle;connectable=0;fillColor=none;top=0;left=0;bottom=0;right=0;editable=1;overflow=hidden;whiteSpace=wrap;html=1;" parent="pHdTkfhxEvhXQCfmh5LA-69" vertex="1">
          <mxGeometry width="30" height="30" as="geometry">
            <mxRectangle width="30" height="30" as="alternateBounds" />
          </mxGeometry>
        </mxCell>
        <mxCell id="pHdTkfhxEvhXQCfmh5LA-71" value="created&lt;span style=&quot;white-space: pre;&quot;&gt;&#x9;&lt;span style=&quot;white-space: pre;&quot;&gt;&#x9;&lt;/span&gt;&lt;/span&gt;&lt;span style=&quot;white-space: pre;&quot;&gt;&#x9;&lt;/span&gt;TIMESTAMP" style="shape=partialRectangle;connectable=0;fillColor=none;top=0;left=0;bottom=0;right=0;align=left;spacingLeft=6;overflow=hidden;whiteSpace=wrap;html=1;" parent="pHdTkfhxEvhXQCfmh5LA-69" vertex="1">
          <mxGeometry x="30" width="207.3033821614585" height="30" as="geometry">
            <mxRectangle width="207.3033821614585" height="30" as="alternateBounds" />
          </mxGeometry>
        </mxCell>
        <mxCell id="pHdTkfhxEvhXQCfmh5LA-75" value="subscribes" style="shape=table;startSize=30;container=1;collapsible=1;childLayout=tableLayout;fixedRows=1;rowLines=0;fontStyle=1;align=center;resizeLast=1;html=1;" parent="1" vertex="1">
          <mxGeometry x="112" y="351" width="240.80004882812494" height="150" as="geometry" />
        </mxCell>
        <mxCell id="pHdTkfhxEvhXQCfmh5LA-158" value="" style="shape=tableRow;horizontal=0;startSize=0;swimlaneHead=0;swimlaneBody=0;fillColor=none;collapsible=0;dropTarget=0;points=[[0,0.5],[1,0.5]];portConstraint=eastwest;top=0;left=0;right=0;bottom=1;" parent="pHdTkfhxEvhXQCfmh5LA-75" vertex="1">
          <mxGeometry y="30" width="240.80004882812494" height="30" as="geometry" />
        </mxCell>
        <mxCell id="pHdTkfhxEvhXQCfmh5LA-159" value="PK" style="shape=partialRectangle;connectable=0;fillColor=none;top=0;left=0;bottom=0;right=0;fontStyle=1;overflow=hidden;whiteSpace=wrap;html=1;" parent="pHdTkfhxEvhXQCfmh5LA-158" vertex="1">
          <mxGeometry width="30" height="30" as="geometry">
            <mxRectangle width="30" height="30" as="alternateBounds" />
          </mxGeometry>
        </mxCell>
        <mxCell id="pHdTkfhxEvhXQCfmh5LA-160" value="id" style="shape=partialRectangle;connectable=0;fillColor=none;top=0;left=0;bottom=0;right=0;align=left;spacingLeft=6;fontStyle=5;overflow=hidden;whiteSpace=wrap;html=1;" parent="pHdTkfhxEvhXQCfmh5LA-158" vertex="1">
          <mxGeometry x="30" width="210.80004882812494" height="30" as="geometry">
            <mxRectangle width="210.80004882812494" height="30" as="alternateBounds" />
          </mxGeometry>
        </mxCell>
        <mxCell id="pHdTkfhxEvhXQCfmh5LA-161" value="" style="shape=tableRow;horizontal=0;startSize=0;swimlaneHead=0;swimlaneBody=0;fillColor=none;collapsible=0;dropTarget=0;points=[[0,0.5],[1,0.5]];portConstraint=eastwest;top=0;left=0;right=0;bottom=1;" parent="pHdTkfhxEvhXQCfmh5LA-75" vertex="1">
          <mxGeometry y="60" width="240.80004882812494" height="30" as="geometry" />
        </mxCell>
        <mxCell id="pHdTkfhxEvhXQCfmh5LA-162" value="FK" style="shape=partialRectangle;connectable=0;fillColor=none;top=0;left=0;bottom=0;right=0;fontStyle=1;overflow=hidden;whiteSpace=wrap;html=1;" parent="pHdTkfhxEvhXQCfmh5LA-161" vertex="1">
          <mxGeometry width="30" height="30" as="geometry">
            <mxRectangle width="30" height="30" as="alternateBounds" />
          </mxGeometry>
        </mxCell>
        <mxCell id="pHdTkfhxEvhXQCfmh5LA-163" value="user_id" style="shape=partialRectangle;connectable=0;fillColor=none;top=0;left=0;bottom=0;right=0;align=left;spacingLeft=6;fontStyle=5;overflow=hidden;whiteSpace=wrap;html=1;" parent="pHdTkfhxEvhXQCfmh5LA-161" vertex="1">
          <mxGeometry x="30" width="210.80004882812494" height="30" as="geometry">
            <mxRectangle width="210.80004882812494" height="30" as="alternateBounds" />
          </mxGeometry>
        </mxCell>
        <mxCell id="pHdTkfhxEvhXQCfmh5LA-76" value="" style="shape=tableRow;horizontal=0;startSize=0;swimlaneHead=0;swimlaneBody=0;fillColor=none;collapsible=0;dropTarget=0;points=[[0,0.5],[1,0.5]];portConstraint=eastwest;top=0;left=0;right=0;bottom=1;" parent="pHdTkfhxEvhXQCfmh5LA-75" vertex="1">
          <mxGeometry y="90" width="240.80004882812494" height="30" as="geometry" />
        </mxCell>
        <mxCell id="pHdTkfhxEvhXQCfmh5LA-77" value="FK" style="shape=partialRectangle;connectable=0;fillColor=none;top=0;left=0;bottom=0;right=0;fontStyle=1;overflow=hidden;whiteSpace=wrap;html=1;" parent="pHdTkfhxEvhXQCfmh5LA-76" vertex="1">
          <mxGeometry width="30" height="30" as="geometry">
            <mxRectangle width="30" height="30" as="alternateBounds" />
          </mxGeometry>
        </mxCell>
        <mxCell id="pHdTkfhxEvhXQCfmh5LA-78" value="subscribe_to_id" style="shape=partialRectangle;connectable=0;fillColor=none;top=0;left=0;bottom=0;right=0;align=left;spacingLeft=6;fontStyle=5;overflow=hidden;whiteSpace=wrap;html=1;" parent="pHdTkfhxEvhXQCfmh5LA-76" vertex="1">
          <mxGeometry x="30" width="210.80004882812494" height="30" as="geometry">
            <mxRectangle width="210.80004882812494" height="30" as="alternateBounds" />
          </mxGeometry>
        </mxCell>
        <mxCell id="pHdTkfhxEvhXQCfmh5LA-85" value="" style="shape=tableRow;horizontal=0;startSize=0;swimlaneHead=0;swimlaneBody=0;fillColor=none;collapsible=0;dropTarget=0;points=[[0,0.5],[1,0.5]];portConstraint=eastwest;top=0;left=0;right=0;bottom=0;" parent="pHdTkfhxEvhXQCfmh5LA-75" vertex="1">
          <mxGeometry y="120" width="240.80004882812494" height="30" as="geometry" />
        </mxCell>
        <mxCell id="pHdTkfhxEvhXQCfmh5LA-86" value="" style="shape=partialRectangle;connectable=0;fillColor=none;top=0;left=0;bottom=0;right=0;editable=1;overflow=hidden;whiteSpace=wrap;html=1;" parent="pHdTkfhxEvhXQCfmh5LA-85" vertex="1">
          <mxGeometry width="30" height="30" as="geometry">
            <mxRectangle width="30" height="30" as="alternateBounds" />
          </mxGeometry>
        </mxCell>
        <mxCell id="pHdTkfhxEvhXQCfmh5LA-87" value="created&lt;span style=&quot;white-space: pre;&quot;&gt;&#x9;&lt;/span&gt;&lt;span style=&quot;white-space: pre;&quot;&gt;&#x9;&lt;/span&gt;TIMESTAMP" style="shape=partialRectangle;connectable=0;fillColor=none;top=0;left=0;bottom=0;right=0;align=left;spacingLeft=6;overflow=hidden;whiteSpace=wrap;html=1;" parent="pHdTkfhxEvhXQCfmh5LA-85" vertex="1">
          <mxGeometry x="30" width="210.80004882812494" height="30" as="geometry">
            <mxRectangle width="210.80004882812494" height="30" as="alternateBounds" />
          </mxGeometry>
        </mxCell>
        <mxCell id="pHdTkfhxEvhXQCfmh5LA-102" value="" style="edgeStyle=orthogonalEdgeStyle;fontSize=12;html=1;endArrow=ERzeroToMany;endFill=0;rounded=1;startSize=8;endSize=8;exitX=1;exitY=0.5;exitDx=0;exitDy=0;curved=0;startArrow=ERmandOne;startFill=0;entryX=0;entryY=0.5;entryDx=0;entryDy=0;" parent="1" source="pHdTkfhxEvhXQCfmh5LA-44" target="pHdTkfhxEvhXQCfmh5LA-129" edge="1">
          <mxGeometry width="100" height="100" relative="1" as="geometry">
            <mxPoint x="787" y="316" as="sourcePoint" />
            <mxPoint x="890" y="553" as="targetPoint" />
          </mxGeometry>
        </mxCell>
        <mxCell id="pHdTkfhxEvhXQCfmh5LA-106" value="" style="edgeStyle=orthogonalEdgeStyle;fontSize=12;html=1;endArrow=ERmandOne;rounded=1;startSize=8;endSize=8;entryX=0;entryY=0.5;entryDx=0;entryDy=0;exitX=1;exitY=0.5;exitDx=0;exitDy=0;endFill=0;startArrow=ERzeroToMany;startFill=0;" parent="1" source="pHdTkfhxEvhXQCfmh5LA-173" target="pHdTkfhxEvhXQCfmh5LA-44" edge="1">
          <mxGeometry width="100" height="100" relative="1" as="geometry">
            <mxPoint x="336" y="527" as="sourcePoint" />
            <mxPoint x="436" y="427" as="targetPoint" />
          </mxGeometry>
        </mxCell>
        <mxCell id="pHdTkfhxEvhXQCfmh5LA-107" value="" style="edgeStyle=orthogonalEdgeStyle;fontSize=12;html=1;endArrow=ERmandOne;rounded=1;startSize=8;endSize=8;entryX=0;entryY=0.5;entryDx=0;entryDy=0;exitX=1;exitY=0.5;exitDx=0;exitDy=0;endFill=0;startArrow=ERzeroToMany;startFill=0;" parent="1" source="pHdTkfhxEvhXQCfmh5LA-60" target="pHdTkfhxEvhXQCfmh5LA-44" edge="1">
          <mxGeometry width="100" height="100" relative="1" as="geometry">
            <mxPoint x="366" y="390" as="sourcePoint" />
            <mxPoint x="466" y="290" as="targetPoint" />
          </mxGeometry>
        </mxCell>
        <mxCell id="pHdTkfhxEvhXQCfmh5LA-108" value="friendships" style="shape=table;startSize=30;container=1;collapsible=1;childLayout=tableLayout;fixedRows=1;rowLines=0;fontStyle=1;align=center;resizeLast=1;html=1;" parent="1" vertex="1">
          <mxGeometry x="112" y="577" width="240.80004882812494" height="150" as="geometry" />
        </mxCell>
        <mxCell id="pHdTkfhxEvhXQCfmh5LA-164" value="" style="shape=tableRow;horizontal=0;startSize=0;swimlaneHead=0;swimlaneBody=0;fillColor=none;collapsible=0;dropTarget=0;points=[[0,0.5],[1,0.5]];portConstraint=eastwest;top=0;left=0;right=0;bottom=1;" parent="pHdTkfhxEvhXQCfmh5LA-108" vertex="1">
          <mxGeometry y="30" width="240.80004882812494" height="30" as="geometry" />
        </mxCell>
        <mxCell id="pHdTkfhxEvhXQCfmh5LA-165" value="PK" style="shape=partialRectangle;connectable=0;fillColor=none;top=0;left=0;bottom=0;right=0;fontStyle=1;overflow=hidden;whiteSpace=wrap;html=1;" parent="pHdTkfhxEvhXQCfmh5LA-164" vertex="1">
          <mxGeometry width="30" height="30" as="geometry">
            <mxRectangle width="30" height="30" as="alternateBounds" />
          </mxGeometry>
        </mxCell>
        <mxCell id="pHdTkfhxEvhXQCfmh5LA-166" value="id" style="shape=partialRectangle;connectable=0;fillColor=none;top=0;left=0;bottom=0;right=0;align=left;spacingLeft=6;fontStyle=5;overflow=hidden;whiteSpace=wrap;html=1;" parent="pHdTkfhxEvhXQCfmh5LA-164" vertex="1">
          <mxGeometry x="30" width="210.80004882812494" height="30" as="geometry">
            <mxRectangle width="210.80004882812494" height="30" as="alternateBounds" />
          </mxGeometry>
        </mxCell>
        <mxCell id="pHdTkfhxEvhXQCfmh5LA-167" value="" style="shape=tableRow;horizontal=0;startSize=0;swimlaneHead=0;swimlaneBody=0;fillColor=none;collapsible=0;dropTarget=0;points=[[0,0.5],[1,0.5]];portConstraint=eastwest;top=0;left=0;right=0;bottom=1;" parent="pHdTkfhxEvhXQCfmh5LA-108" vertex="1">
          <mxGeometry y="60" width="240.80004882812494" height="30" as="geometry" />
        </mxCell>
        <mxCell id="pHdTkfhxEvhXQCfmh5LA-168" value="FK" style="shape=partialRectangle;connectable=0;fillColor=none;top=0;left=0;bottom=0;right=0;fontStyle=1;overflow=hidden;whiteSpace=wrap;html=1;" parent="pHdTkfhxEvhXQCfmh5LA-167" vertex="1">
          <mxGeometry width="30" height="30" as="geometry">
            <mxRectangle width="30" height="30" as="alternateBounds" />
          </mxGeometry>
        </mxCell>
        <mxCell id="pHdTkfhxEvhXQCfmh5LA-169" value="user_from_id" style="shape=partialRectangle;connectable=0;fillColor=none;top=0;left=0;bottom=0;right=0;align=left;spacingLeft=6;fontStyle=5;overflow=hidden;whiteSpace=wrap;html=1;" parent="pHdTkfhxEvhXQCfmh5LA-167" vertex="1">
          <mxGeometry x="30" width="210.80004882812494" height="30" as="geometry">
            <mxRectangle width="210.80004882812494" height="30" as="alternateBounds" />
          </mxGeometry>
        </mxCell>
        <mxCell id="pHdTkfhxEvhXQCfmh5LA-109" value="" style="shape=tableRow;horizontal=0;startSize=0;swimlaneHead=0;swimlaneBody=0;fillColor=none;collapsible=0;dropTarget=0;points=[[0,0.5],[1,0.5]];portConstraint=eastwest;top=0;left=0;right=0;bottom=1;" parent="pHdTkfhxEvhXQCfmh5LA-108" vertex="1">
          <mxGeometry y="90" width="240.80004882812494" height="30" as="geometry" />
        </mxCell>
        <mxCell id="pHdTkfhxEvhXQCfmh5LA-110" value="FK" style="shape=partialRectangle;connectable=0;fillColor=none;top=0;left=0;bottom=0;right=0;fontStyle=1;overflow=hidden;whiteSpace=wrap;html=1;" parent="pHdTkfhxEvhXQCfmh5LA-109" vertex="1">
          <mxGeometry width="30" height="30" as="geometry">
            <mxRectangle width="30" height="30" as="alternateBounds" />
          </mxGeometry>
        </mxCell>
        <mxCell id="pHdTkfhxEvhXQCfmh5LA-111" value="user_to_id" style="shape=partialRectangle;connectable=0;fillColor=none;top=0;left=0;bottom=0;right=0;align=left;spacingLeft=6;fontStyle=5;overflow=hidden;whiteSpace=wrap;html=1;" parent="pHdTkfhxEvhXQCfmh5LA-109" vertex="1">
          <mxGeometry x="30" width="210.80004882812494" height="30" as="geometry">
            <mxRectangle width="210.80004882812494" height="30" as="alternateBounds" />
          </mxGeometry>
        </mxCell>
        <mxCell id="pHdTkfhxEvhXQCfmh5LA-118" value="" style="shape=tableRow;horizontal=0;startSize=0;swimlaneHead=0;swimlaneBody=0;fillColor=none;collapsible=0;dropTarget=0;points=[[0,0.5],[1,0.5]];portConstraint=eastwest;top=0;left=0;right=0;bottom=0;" parent="pHdTkfhxEvhXQCfmh5LA-108" vertex="1">
          <mxGeometry y="120" width="240.80004882812494" height="30" as="geometry" />
        </mxCell>
        <mxCell id="pHdTkfhxEvhXQCfmh5LA-119" value="" style="shape=partialRectangle;connectable=0;fillColor=none;top=0;left=0;bottom=0;right=0;editable=1;overflow=hidden;whiteSpace=wrap;html=1;" parent="pHdTkfhxEvhXQCfmh5LA-118" vertex="1">
          <mxGeometry width="30" height="30" as="geometry">
            <mxRectangle width="30" height="30" as="alternateBounds" />
          </mxGeometry>
        </mxCell>
        <mxCell id="pHdTkfhxEvhXQCfmh5LA-120" value="created&lt;span style=&quot;white-space: pre;&quot;&gt;&#x9;&lt;/span&gt;&lt;span style=&quot;white-space: pre;&quot;&gt;&#x9;&lt;/span&gt;TIMESTAMP" style="shape=partialRectangle;connectable=0;fillColor=none;top=0;left=0;bottom=0;right=0;align=left;spacingLeft=6;overflow=hidden;whiteSpace=wrap;html=1;" parent="pHdTkfhxEvhXQCfmh5LA-118" vertex="1">
          <mxGeometry x="30" width="210.80004882812494" height="30" as="geometry">
            <mxRectangle width="210.80004882812494" height="30" as="alternateBounds" />
          </mxGeometry>
        </mxCell>
        <mxCell id="pHdTkfhxEvhXQCfmh5LA-122" value="" style="edgeStyle=orthogonalEdgeStyle;fontSize=12;html=1;endArrow=ERmandOne;rounded=1;startSize=8;endSize=8;entryX=0;entryY=0.5;entryDx=0;entryDy=0;exitX=1;exitY=0.5;exitDx=0;exitDy=0;endFill=0;startArrow=ERzeroToMany;startFill=0;" parent="1" source="pHdTkfhxEvhXQCfmh5LA-161" target="pHdTkfhxEvhXQCfmh5LA-44" edge="1">
          <mxGeometry width="100" height="100" relative="1" as="geometry">
            <mxPoint x="289.000048828125" y="329" as="sourcePoint" />
            <mxPoint x="549.2" y="309" as="targetPoint" />
          </mxGeometry>
        </mxCell>
        <mxCell id="pHdTkfhxEvhXQCfmh5LA-123" value="" style="edgeStyle=orthogonalEdgeStyle;fontSize=12;html=1;endArrow=ERmandOne;rounded=1;startSize=8;endSize=8;entryX=0;entryY=0.5;entryDx=0;entryDy=0;exitX=1;exitY=0.5;exitDx=0;exitDy=0;endFill=0;startArrow=ERzeroToMany;startFill=0;" parent="1" source="pHdTkfhxEvhXQCfmh5LA-76" target="pHdTkfhxEvhXQCfmh5LA-44" edge="1">
          <mxGeometry width="100" height="100" relative="1" as="geometry">
            <mxPoint x="341.000048828125" y="433" as="sourcePoint" />
            <mxPoint x="601.2" y="383" as="targetPoint" />
          </mxGeometry>
        </mxCell>
        <mxCell id="pHdTkfhxEvhXQCfmh5LA-124" value="" style="edgeStyle=orthogonalEdgeStyle;fontSize=12;html=1;endArrow=ERmandOne;rounded=1;startSize=8;endSize=8;entryX=0;entryY=0.5;entryDx=0;entryDy=0;exitX=1;exitY=0.5;exitDx=0;exitDy=0;endFill=0;startArrow=ERzeroToMany;startFill=0;" parent="1" source="pHdTkfhxEvhXQCfmh5LA-167" target="pHdTkfhxEvhXQCfmh5LA-44" edge="1">
          <mxGeometry width="100" height="100" relative="1" as="geometry">
            <mxPoint x="393" y="240" as="sourcePoint" />
            <mxPoint x="512" y="277" as="targetPoint" />
          </mxGeometry>
        </mxCell>
        <mxCell id="pHdTkfhxEvhXQCfmh5LA-125" value="" style="edgeStyle=orthogonalEdgeStyle;fontSize=12;html=1;endArrow=ERmandOne;rounded=1;startSize=8;endSize=8;entryX=0;entryY=0.5;entryDx=0;entryDy=0;exitX=1;exitY=0.5;exitDx=0;exitDy=0;endFill=0;startArrow=ERzeroToMany;startFill=0;" parent="1" source="pHdTkfhxEvhXQCfmh5LA-109" target="pHdTkfhxEvhXQCfmh5LA-44" edge="1">
          <mxGeometry width="100" height="100" relative="1" as="geometry">
            <mxPoint x="403" y="250" as="sourcePoint" />
            <mxPoint x="522" y="287" as="targetPoint" />
          </mxGeometry>
        </mxCell>
        <mxCell id="SDJ4pSc3TioN7-0xdb-D-14" value="files" style="shape=table;startSize=30;container=1;collapsible=1;childLayout=tableLayout;fixedRows=1;rowLines=0;fontStyle=1;align=center;resizeLast=1;html=1;" parent="1" vertex="1">
          <mxGeometry x="831" y="461" width="180" height="150" as="geometry" />
        </mxCell>
        <mxCell id="SDJ4pSc3TioN7-0xdb-D-27" value="" style="shape=tableRow;horizontal=0;startSize=0;swimlaneHead=0;swimlaneBody=0;fillColor=none;collapsible=0;dropTarget=0;points=[[0,0.5],[1,0.5]];portConstraint=eastwest;top=0;left=0;right=0;bottom=1;" parent="SDJ4pSc3TioN7-0xdb-D-14" vertex="1">
          <mxGeometry y="30" width="180" height="30" as="geometry" />
        </mxCell>
        <mxCell id="SDJ4pSc3TioN7-0xdb-D-28" value="PK" style="shape=partialRectangle;connectable=0;fillColor=none;top=0;left=0;bottom=0;right=0;fontStyle=1;overflow=hidden;whiteSpace=wrap;html=1;" parent="SDJ4pSc3TioN7-0xdb-D-27" vertex="1">
          <mxGeometry width="30" height="30" as="geometry">
            <mxRectangle width="30" height="30" as="alternateBounds" />
          </mxGeometry>
        </mxCell>
        <mxCell id="SDJ4pSc3TioN7-0xdb-D-29" value="id" style="shape=partialRectangle;connectable=0;fillColor=none;top=0;left=0;bottom=0;right=0;align=left;spacingLeft=6;fontStyle=5;overflow=hidden;whiteSpace=wrap;html=1;" parent="SDJ4pSc3TioN7-0xdb-D-27" vertex="1">
          <mxGeometry x="30" width="150" height="30" as="geometry">
            <mxRectangle width="150" height="30" as="alternateBounds" />
          </mxGeometry>
        </mxCell>
        <mxCell id="SDJ4pSc3TioN7-0xdb-D-15" value="" style="shape=tableRow;horizontal=0;startSize=0;swimlaneHead=0;swimlaneBody=0;fillColor=none;collapsible=0;dropTarget=0;points=[[0,0.5],[1,0.5]];portConstraint=eastwest;top=0;left=0;right=0;bottom=1;" parent="SDJ4pSc3TioN7-0xdb-D-14" vertex="1">
          <mxGeometry y="60" width="180" height="30" as="geometry" />
        </mxCell>
        <mxCell id="SDJ4pSc3TioN7-0xdb-D-16" value="FK" style="shape=partialRectangle;connectable=0;fillColor=none;top=0;left=0;bottom=0;right=0;fontStyle=1;overflow=hidden;whiteSpace=wrap;html=1;" parent="SDJ4pSc3TioN7-0xdb-D-15" vertex="1">
          <mxGeometry width="30" height="30" as="geometry">
            <mxRectangle width="30" height="30" as="alternateBounds" />
          </mxGeometry>
        </mxCell>
        <mxCell id="SDJ4pSc3TioN7-0xdb-D-17" value="post_id" style="shape=partialRectangle;connectable=0;fillColor=none;top=0;left=0;bottom=0;right=0;align=left;spacingLeft=6;fontStyle=5;overflow=hidden;whiteSpace=wrap;html=1;" parent="SDJ4pSc3TioN7-0xdb-D-15" vertex="1">
          <mxGeometry x="30" width="150" height="30" as="geometry">
            <mxRectangle width="150" height="30" as="alternateBounds" />
          </mxGeometry>
        </mxCell>
        <mxCell id="SDJ4pSc3TioN7-0xdb-D-18" value="" style="shape=tableRow;horizontal=0;startSize=0;swimlaneHead=0;swimlaneBody=0;fillColor=none;collapsible=0;dropTarget=0;points=[[0,0.5],[1,0.5]];portConstraint=eastwest;top=0;left=0;right=0;bottom=0;" parent="SDJ4pSc3TioN7-0xdb-D-14" vertex="1">
          <mxGeometry y="90" width="180" height="30" as="geometry" />
        </mxCell>
        <mxCell id="SDJ4pSc3TioN7-0xdb-D-19" value="" style="shape=partialRectangle;connectable=0;fillColor=none;top=0;left=0;bottom=0;right=0;editable=1;overflow=hidden;whiteSpace=wrap;html=1;" parent="SDJ4pSc3TioN7-0xdb-D-18" vertex="1">
          <mxGeometry width="30" height="30" as="geometry">
            <mxRectangle width="30" height="30" as="alternateBounds" />
          </mxGeometry>
        </mxCell>
        <mxCell id="SDJ4pSc3TioN7-0xdb-D-20" value="title&lt;span style=&quot;white-space: pre;&quot;&gt;&#x9;&lt;/span&gt;&lt;span style=&quot;white-space: pre;&quot;&gt;&#x9;&lt;/span&gt;TEXT" style="shape=partialRectangle;connectable=0;fillColor=none;top=0;left=0;bottom=0;right=0;align=left;spacingLeft=6;overflow=hidden;whiteSpace=wrap;html=1;" parent="SDJ4pSc3TioN7-0xdb-D-18" vertex="1">
          <mxGeometry x="30" width="150" height="30" as="geometry">
            <mxRectangle width="150" height="30" as="alternateBounds" />
          </mxGeometry>
        </mxCell>
        <mxCell id="SDJ4pSc3TioN7-0xdb-D-21" value="" style="shape=tableRow;horizontal=0;startSize=0;swimlaneHead=0;swimlaneBody=0;fillColor=none;collapsible=0;dropTarget=0;points=[[0,0.5],[1,0.5]];portConstraint=eastwest;top=0;left=0;right=0;bottom=0;" parent="SDJ4pSc3TioN7-0xdb-D-14" vertex="1">
          <mxGeometry y="120" width="180" height="30" as="geometry" />
        </mxCell>
        <mxCell id="SDJ4pSc3TioN7-0xdb-D-22" value="" style="shape=partialRectangle;connectable=0;fillColor=none;top=0;left=0;bottom=0;right=0;editable=1;overflow=hidden;whiteSpace=wrap;html=1;" parent="SDJ4pSc3TioN7-0xdb-D-21" vertex="1">
          <mxGeometry width="30" height="30" as="geometry">
            <mxRectangle width="30" height="30" as="alternateBounds" />
          </mxGeometry>
        </mxCell>
        <mxCell id="SDJ4pSc3TioN7-0xdb-D-23" value="path&lt;span style=&quot;white-space: pre;&quot;&gt;&#x9;&lt;/span&gt;&lt;span style=&quot;white-space: pre;&quot;&gt;&#x9;&lt;/span&gt;TEXT" style="shape=partialRectangle;connectable=0;fillColor=none;top=0;left=0;bottom=0;right=0;align=left;spacingLeft=6;overflow=hidden;whiteSpace=wrap;html=1;" parent="SDJ4pSc3TioN7-0xdb-D-21" vertex="1">
          <mxGeometry x="30" width="150" height="30" as="geometry">
            <mxRectangle width="150" height="30" as="alternateBounds" />
          </mxGeometry>
        </mxCell>
        <mxCell id="SDJ4pSc3TioN7-0xdb-D-30" value="" style="edgeStyle=elbowEdgeStyle;fontSize=12;html=1;endArrow=ERmandOne;rounded=1;startSize=8;endSize=8;entryX=1;entryY=0.5;entryDx=0;entryDy=0;exitX=1;exitY=0.5;exitDx=0;exitDy=0;startArrow=ERzeroToMany;startFill=0;endFill=0;curved=0;" parent="1" source="SDJ4pSc3TioN7-0xdb-D-15" target="pHdTkfhxEvhXQCfmh5LA-28" edge="1">
          <mxGeometry width="100" height="100" relative="1" as="geometry">
            <mxPoint x="1051" y="395" as="sourcePoint" />
            <mxPoint x="1151" y="295" as="targetPoint" />
            <Array as="points">
              <mxPoint x="1089" y="376" />
            </Array>
          </mxGeometry>
        </mxCell>
      </root>
    </mxGraphModel>
  </diagram>
</mxfile>
